<mxfile host="Electron" modified="2024-01-02T19:47:28.366Z" agent="Mozilla/5.0 (Windows NT 10.0; Win64; x64) AppleWebKit/537.36 (KHTML, like Gecko) draw.io/22.0.0 Chrome/114.0.5735.289 Electron/25.8.3 Safari/537.36" etag="7x4LlzYemEKzjlfxPNn2" version="22.0.0" type="device">
  <diagram name="Page-1" id="XQAXtMAQHzPJaxeUQY96">
    <mxGraphModel dx="517" dy="302" grid="1" gridSize="10" guides="1" tooltips="1" connect="1" arrows="1" fold="1" page="1" pageScale="1" pageWidth="1654" pageHeight="2336" math="0" shadow="0">
      <root>
        <mxCell id="0" />
        <mxCell id="1" parent="0" />
        <mxCell id="8ZSdT7PTFu4EOdGAyj04-42" value="" style="rounded=0;whiteSpace=wrap;html=1;strokeColor=#FF0000;fillColor=#FF0000;" vertex="1" parent="1">
          <mxGeometry x="601" y="200" width="229" height="120" as="geometry" />
        </mxCell>
        <mxCell id="8ZSdT7PTFu4EOdGAyj04-23" value="" style="rounded=0;whiteSpace=wrap;html=1;fillColor=#008a00;fontColor=#ffffff;strokeColor=#005700;" vertex="1" parent="1">
          <mxGeometry x="440" y="256" width="240" height="60" as="geometry" />
        </mxCell>
        <mxCell id="8ZSdT7PTFu4EOdGAyj04-20" value="" style="endArrow=none;html=1;rounded=0;strokeColor=#2D7600;fillColor=#60a917;" edge="1" parent="1" target="8ZSdT7PTFu4EOdGAyj04-19">
          <mxGeometry width="50" height="50" relative="1" as="geometry">
            <mxPoint x="440" y="310" as="sourcePoint" />
            <mxPoint x="440.04" y="250" as="targetPoint" />
          </mxGeometry>
        </mxCell>
        <mxCell id="8ZSdT7PTFu4EOdGAyj04-8" value="" style="endArrow=none;html=1;rounded=0;" edge="1" parent="1">
          <mxGeometry width="50" height="50" relative="1" as="geometry">
            <mxPoint x="599.5799999999999" y="340" as="sourcePoint" />
            <mxPoint x="599.5799999999999" y="300" as="targetPoint" />
          </mxGeometry>
        </mxCell>
        <mxCell id="8ZSdT7PTFu4EOdGAyj04-1" value="" style="endArrow=none;html=1;rounded=0;strokeWidth=8;strokeColor=#FFFFFF;" edge="1" parent="1">
          <mxGeometry width="50" height="50" relative="1" as="geometry">
            <mxPoint x="400" y="320" as="sourcePoint" />
            <mxPoint x="840" y="320" as="targetPoint" />
          </mxGeometry>
        </mxCell>
        <mxCell id="8ZSdT7PTFu4EOdGAyj04-3" value="&lt;font style=&quot;font-size: 22px;&quot;&gt;2&lt;/font&gt;" style="text;html=1;strokeColor=none;fillColor=none;align=center;verticalAlign=middle;whiteSpace=wrap;rounded=0;" vertex="1" parent="1">
          <mxGeometry x="370" y="340" width="60" height="30" as="geometry" />
        </mxCell>
        <mxCell id="8ZSdT7PTFu4EOdGAyj04-4" value="" style="endArrow=none;html=1;rounded=0;" edge="1" parent="1">
          <mxGeometry width="50" height="50" relative="1" as="geometry">
            <mxPoint x="399.58" y="340" as="sourcePoint" />
            <mxPoint x="399.58" y="300" as="targetPoint" />
          </mxGeometry>
        </mxCell>
        <mxCell id="8ZSdT7PTFu4EOdGAyj04-5" value="&lt;font style=&quot;font-size: 22px;&quot;&gt;4&lt;/font&gt;" style="text;html=1;strokeColor=none;fillColor=none;align=center;verticalAlign=middle;whiteSpace=wrap;rounded=0;" vertex="1" parent="1">
          <mxGeometry x="770" y="340" width="60" height="30" as="geometry" />
        </mxCell>
        <mxCell id="8ZSdT7PTFu4EOdGAyj04-6" value="" style="endArrow=none;html=1;rounded=0;" edge="1" parent="1">
          <mxGeometry width="50" height="50" relative="1" as="geometry">
            <mxPoint x="799.5799999999999" y="340" as="sourcePoint" />
            <mxPoint x="799.5799999999999" y="300" as="targetPoint" />
          </mxGeometry>
        </mxCell>
        <mxCell id="8ZSdT7PTFu4EOdGAyj04-7" value="&lt;font style=&quot;font-size: 22px;&quot;&gt;3&lt;/font&gt;" style="text;html=1;strokeColor=none;fillColor=none;align=center;verticalAlign=middle;whiteSpace=wrap;rounded=0;" vertex="1" parent="1">
          <mxGeometry x="570" y="340" width="60" height="30" as="geometry" />
        </mxCell>
        <mxCell id="8ZSdT7PTFu4EOdGAyj04-9" value="&lt;font style=&quot;font-size: 20px;&quot;&gt;LIMIAR&lt;/font&gt;" style="text;html=1;strokeColor=none;fillColor=none;align=center;verticalAlign=middle;whiteSpace=wrap;rounded=0;" vertex="1" parent="1">
          <mxGeometry x="570" y="150" width="60" height="30" as="geometry" />
        </mxCell>
        <mxCell id="8ZSdT7PTFu4EOdGAyj04-10" value="&lt;font color=&quot;#3f7dbf&quot; style=&quot;font-size: 11px;&quot;&gt;2,79&lt;/font&gt;" style="text;html=1;strokeColor=none;fillColor=none;align=center;verticalAlign=middle;whiteSpace=wrap;rounded=0;" vertex="1" parent="1">
          <mxGeometry x="530" y="330" width="60" height="30" as="geometry" />
        </mxCell>
        <mxCell id="8ZSdT7PTFu4EOdGAyj04-11" value="" style="endArrow=none;html=1;rounded=0;strokeColor=#006EAF;fillColor=#1ba1e2;" edge="1" parent="1">
          <mxGeometry width="50" height="50" relative="1" as="geometry">
            <mxPoint x="559.76" y="330" as="sourcePoint" />
            <mxPoint x="560" y="310" as="targetPoint" />
          </mxGeometry>
        </mxCell>
        <mxCell id="8ZSdT7PTFu4EOdGAyj04-13" value="&lt;font color=&quot;#0c9134&quot; style=&quot;font-size: 11px;&quot;&gt;2,19&lt;/font&gt;" style="text;html=1;strokeColor=none;fillColor=none;align=center;verticalAlign=middle;whiteSpace=wrap;rounded=0;" vertex="1" parent="1">
          <mxGeometry x="410" y="330" width="60" height="30" as="geometry" />
        </mxCell>
        <mxCell id="8ZSdT7PTFu4EOdGAyj04-14" value="" style="endArrow=none;html=1;rounded=0;strokeColor=#2D7600;fillColor=#60a917;" edge="1" parent="1">
          <mxGeometry width="50" height="50" relative="1" as="geometry">
            <mxPoint x="439.76" y="330" as="sourcePoint" />
            <mxPoint x="440" y="310" as="targetPoint" />
          </mxGeometry>
        </mxCell>
        <mxCell id="8ZSdT7PTFu4EOdGAyj04-15" value="&lt;font color=&quot;#0c9134&quot; style=&quot;font-size: 11px;&quot;&gt;2,19&lt;/font&gt;" style="text;html=1;strokeColor=none;fillColor=none;align=center;verticalAlign=middle;whiteSpace=wrap;rounded=0;" vertex="1" parent="1">
          <mxGeometry x="650" y="330" width="60" height="30" as="geometry" />
        </mxCell>
        <mxCell id="8ZSdT7PTFu4EOdGAyj04-16" value="" style="endArrow=none;html=1;rounded=0;strokeColor=#2D7600;fillColor=#60a917;" edge="1" parent="1">
          <mxGeometry width="50" height="50" relative="1" as="geometry">
            <mxPoint x="679.76" y="330" as="sourcePoint" />
            <mxPoint x="680" y="310" as="targetPoint" />
          </mxGeometry>
        </mxCell>
        <mxCell id="8ZSdT7PTFu4EOdGAyj04-17" value="" style="endArrow=none;html=1;rounded=0;strokeColor=#2D7600;fillColor=#60a917;" edge="1" parent="1" source="8ZSdT7PTFu4EOdGAyj04-19">
          <mxGeometry width="50" height="50" relative="1" as="geometry">
            <mxPoint x="440" y="310" as="sourcePoint" />
            <mxPoint x="440.04" y="250" as="targetPoint" />
          </mxGeometry>
        </mxCell>
        <mxCell id="8ZSdT7PTFu4EOdGAyj04-18" value="" style="endArrow=none;html=1;rounded=0;strokeColor=#2D7600;fillColor=#60a917;" edge="1" parent="1">
          <mxGeometry width="50" height="50" relative="1" as="geometry">
            <mxPoint x="679.8" y="310" as="sourcePoint" />
            <mxPoint x="679.84" y="250" as="targetPoint" />
          </mxGeometry>
        </mxCell>
        <mxCell id="8ZSdT7PTFu4EOdGAyj04-19" value="" style="ellipse;whiteSpace=wrap;html=1;aspect=fixed;fillColor=#60a917;fontColor=#ffffff;strokeColor=#2D7600;" vertex="1" parent="1">
          <mxGeometry x="435" y="250" width="10" height="10" as="geometry" />
        </mxCell>
        <mxCell id="8ZSdT7PTFu4EOdGAyj04-21" value="" style="ellipse;whiteSpace=wrap;html=1;aspect=fixed;fillColor=#60a917;fontColor=#ffffff;strokeColor=#2D7600;" vertex="1" parent="1">
          <mxGeometry x="675" y="250" width="10" height="10" as="geometry" />
        </mxCell>
        <mxCell id="8ZSdT7PTFu4EOdGAyj04-22" value="" style="endArrow=none;html=1;rounded=0;strokeColor=#2D7600;fillColor=#60a917;entryX=1;entryY=0.5;entryDx=0;entryDy=0;exitX=0;exitY=0.5;exitDx=0;exitDy=0;" edge="1" parent="1">
          <mxGeometry width="50" height="50" relative="1" as="geometry">
            <mxPoint x="675" y="256" as="sourcePoint" />
            <mxPoint x="445" y="256" as="targetPoint" />
          </mxGeometry>
        </mxCell>
        <mxCell id="8ZSdT7PTFu4EOdGAyj04-2" value="" style="endArrow=none;html=1;rounded=0;strokeWidth=2;fillColor=#e51400;strokeColor=#B20000;entryX=0.5;entryY=1;entryDx=0;entryDy=0;" edge="1" parent="1" source="8ZSdT7PTFu4EOdGAyj04-38" target="8ZSdT7PTFu4EOdGAyj04-9">
          <mxGeometry width="50" height="50" relative="1" as="geometry">
            <mxPoint x="599.76" y="316" as="sourcePoint" />
            <mxPoint x="600" y="190" as="targetPoint" />
          </mxGeometry>
        </mxCell>
        <mxCell id="8ZSdT7PTFu4EOdGAyj04-24" value="" style="endArrow=none;html=1;rounded=0;entryX=0.25;entryY=0;entryDx=0;entryDy=0;exitX=0;exitY=0.5;exitDx=0;exitDy=0;" edge="1" parent="1" source="8ZSdT7PTFu4EOdGAyj04-23" target="8ZSdT7PTFu4EOdGAyj04-23">
          <mxGeometry width="50" height="50" relative="1" as="geometry">
            <mxPoint x="409.58" y="350" as="sourcePoint" />
            <mxPoint x="409.58" y="310" as="targetPoint" />
          </mxGeometry>
        </mxCell>
        <mxCell id="8ZSdT7PTFu4EOdGAyj04-25" value="" style="endArrow=none;html=1;rounded=0;entryX=0.338;entryY=0.031;entryDx=0;entryDy=0;exitX=0;exitY=0.75;exitDx=0;exitDy=0;entryPerimeter=0;" edge="1" parent="1" source="8ZSdT7PTFu4EOdGAyj04-23" target="8ZSdT7PTFu4EOdGAyj04-23">
          <mxGeometry width="50" height="50" relative="1" as="geometry">
            <mxPoint x="450" y="296" as="sourcePoint" />
            <mxPoint x="510" y="266" as="targetPoint" />
          </mxGeometry>
        </mxCell>
        <mxCell id="8ZSdT7PTFu4EOdGAyj04-26" value="" style="endArrow=none;html=1;rounded=0;entryX=0.44;entryY=0.012;entryDx=0;entryDy=0;exitX=0;exitY=1;exitDx=0;exitDy=0;entryPerimeter=0;" edge="1" parent="1" source="8ZSdT7PTFu4EOdGAyj04-23" target="8ZSdT7PTFu4EOdGAyj04-23">
          <mxGeometry width="50" height="50" relative="1" as="geometry">
            <mxPoint x="450" y="311" as="sourcePoint" />
            <mxPoint x="531" y="268" as="targetPoint" />
          </mxGeometry>
        </mxCell>
        <mxCell id="8ZSdT7PTFu4EOdGAyj04-27" value="" style="endArrow=none;html=1;rounded=0;entryX=0.44;entryY=0.012;entryDx=0;entryDy=0;exitX=0;exitY=1;exitDx=0;exitDy=0;entryPerimeter=0;" edge="1" parent="1">
          <mxGeometry width="50" height="50" relative="1" as="geometry">
            <mxPoint x="462" y="316" as="sourcePoint" />
            <mxPoint x="568" y="257" as="targetPoint" />
          </mxGeometry>
        </mxCell>
        <mxCell id="8ZSdT7PTFu4EOdGAyj04-28" value="" style="endArrow=none;html=1;rounded=0;entryX=0.44;entryY=0.012;entryDx=0;entryDy=0;exitX=0;exitY=1;exitDx=0;exitDy=0;entryPerimeter=0;" edge="1" parent="1">
          <mxGeometry width="50" height="50" relative="1" as="geometry">
            <mxPoint x="484" y="316" as="sourcePoint" />
            <mxPoint x="590" y="257" as="targetPoint" />
          </mxGeometry>
        </mxCell>
        <mxCell id="8ZSdT7PTFu4EOdGAyj04-29" value="" style="endArrow=none;html=1;rounded=0;entryX=0.44;entryY=0.012;entryDx=0;entryDy=0;exitX=0;exitY=1;exitDx=0;exitDy=0;entryPerimeter=0;" edge="1" parent="1">
          <mxGeometry width="50" height="50" relative="1" as="geometry">
            <mxPoint x="510" y="315" as="sourcePoint" />
            <mxPoint x="616" y="256" as="targetPoint" />
          </mxGeometry>
        </mxCell>
        <mxCell id="8ZSdT7PTFu4EOdGAyj04-30" value="" style="endArrow=none;html=1;rounded=0;entryX=0.44;entryY=0.012;entryDx=0;entryDy=0;exitX=0;exitY=1;exitDx=0;exitDy=0;entryPerimeter=0;" edge="1" parent="1">
          <mxGeometry width="50" height="50" relative="1" as="geometry">
            <mxPoint x="532" y="315" as="sourcePoint" />
            <mxPoint x="638" y="256" as="targetPoint" />
          </mxGeometry>
        </mxCell>
        <mxCell id="8ZSdT7PTFu4EOdGAyj04-31" value="" style="endArrow=none;html=1;rounded=0;entryX=0.44;entryY=0.012;entryDx=0;entryDy=0;exitX=0;exitY=1;exitDx=0;exitDy=0;entryPerimeter=0;" edge="1" parent="1">
          <mxGeometry width="50" height="50" relative="1" as="geometry">
            <mxPoint x="552" y="315.5" as="sourcePoint" />
            <mxPoint x="658" y="256.5" as="targetPoint" />
          </mxGeometry>
        </mxCell>
        <mxCell id="8ZSdT7PTFu4EOdGAyj04-32" value="" style="endArrow=none;html=1;rounded=0;entryX=0.44;entryY=0.012;entryDx=0;entryDy=0;exitX=0;exitY=1;exitDx=0;exitDy=0;entryPerimeter=0;" edge="1" parent="1">
          <mxGeometry width="50" height="50" relative="1" as="geometry">
            <mxPoint x="574" y="315.5" as="sourcePoint" />
            <mxPoint x="680" y="256.5" as="targetPoint" />
          </mxGeometry>
        </mxCell>
        <mxCell id="8ZSdT7PTFu4EOdGAyj04-33" value="" style="endArrow=none;html=1;rounded=0;entryX=0.25;entryY=0;entryDx=0;entryDy=0;exitX=0;exitY=0.5;exitDx=0;exitDy=0;" edge="1" parent="1">
          <mxGeometry width="50" height="50" relative="1" as="geometry">
            <mxPoint x="620" y="316" as="sourcePoint" />
            <mxPoint x="680" y="286" as="targetPoint" />
          </mxGeometry>
        </mxCell>
        <mxCell id="8ZSdT7PTFu4EOdGAyj04-34" value="" style="endArrow=none;html=1;rounded=0;entryX=0.338;entryY=0.031;entryDx=0;entryDy=0;exitX=0;exitY=0.75;exitDx=0;exitDy=0;entryPerimeter=0;" edge="1" parent="1">
          <mxGeometry width="50" height="50" relative="1" as="geometry">
            <mxPoint x="599" y="316" as="sourcePoint" />
            <mxPoint x="680" y="273" as="targetPoint" />
          </mxGeometry>
        </mxCell>
        <mxCell id="8ZSdT7PTFu4EOdGAyj04-35" value="" style="shape=flexArrow;endArrow=classic;html=1;rounded=0;fillColor=#FFFFFF;gradientColor=#FFFFFF;strokeColor=none;width=3.4285714285714284;endSize=7.097142857142857;endWidth=18.69387755102041;" edge="1" parent="1">
          <mxGeometry width="50" height="50" relative="1" as="geometry">
            <mxPoint x="820" y="320" as="sourcePoint" />
            <mxPoint x="860" y="320" as="targetPoint" />
          </mxGeometry>
        </mxCell>
        <mxCell id="8ZSdT7PTFu4EOdGAyj04-36" value="" style="endArrow=none;html=1;rounded=0;strokeColor=#006EAF;fillColor=#1ba1e2;" edge="1" parent="1">
          <mxGeometry width="50" height="50" relative="1" as="geometry">
            <mxPoint x="560" y="240" as="sourcePoint" />
            <mxPoint x="559.8" y="315" as="targetPoint" />
          </mxGeometry>
        </mxCell>
        <mxCell id="8ZSdT7PTFu4EOdGAyj04-37" value="&lt;font color=&quot;#3f7dbf&quot; style=&quot;font-size: 11px;&quot;&gt;valor EMPATIA&lt;/font&gt;" style="text;html=1;strokeColor=none;fillColor=none;align=center;verticalAlign=middle;whiteSpace=wrap;rounded=0;" vertex="1" parent="1">
          <mxGeometry x="530" y="210" width="60" height="30" as="geometry" />
        </mxCell>
        <mxCell id="8ZSdT7PTFu4EOdGAyj04-39" value="" style="endArrow=none;html=1;rounded=0;strokeWidth=2;fillColor=#e51400;strokeColor=#B20000;" edge="1" parent="1" target="8ZSdT7PTFu4EOdGAyj04-38">
          <mxGeometry width="50" height="50" relative="1" as="geometry">
            <mxPoint x="599.76" y="316" as="sourcePoint" />
            <mxPoint x="600" y="190" as="targetPoint" />
          </mxGeometry>
        </mxCell>
        <mxCell id="8ZSdT7PTFu4EOdGAyj04-38" value="" style="ellipse;whiteSpace=wrap;html=1;aspect=fixed;fillColor=#f8cecc;strokeColor=#b85450;" vertex="1" parent="1">
          <mxGeometry x="595" y="195" width="10" height="10" as="geometry" />
        </mxCell>
        <mxCell id="8ZSdT7PTFu4EOdGAyj04-40" value="" style="endArrow=none;html=1;rounded=0;strokeWidth=4;fillColor=#e51400;strokeColor=#B20000;entryX=1;entryY=0.5;entryDx=0;entryDy=0;" edge="1" parent="1" target="8ZSdT7PTFu4EOdGAyj04-38">
          <mxGeometry width="50" height="50" relative="1" as="geometry">
            <mxPoint x="760" y="200" as="sourcePoint" />
            <mxPoint x="610" y="220" as="targetPoint" />
          </mxGeometry>
        </mxCell>
        <mxCell id="8ZSdT7PTFu4EOdGAyj04-41" value="" style="shape=flexArrow;endArrow=classic;html=1;rounded=0;fillColor=#b20000;gradientColor=none;strokeColor=none;width=4.170616113744075;endSize=7.547867298578198;endWidth=18.69387755102041;" edge="1" parent="1">
          <mxGeometry width="50" height="50" relative="1" as="geometry">
            <mxPoint x="758" y="199.95000000000002" as="sourcePoint" />
            <mxPoint x="860" y="200" as="targetPoint" />
            <Array as="points" />
          </mxGeometry>
        </mxCell>
        <mxCell id="8ZSdT7PTFu4EOdGAyj04-43" value="" style="endArrow=none;html=1;rounded=0;entryX=0.25;entryY=0;entryDx=0;entryDy=0;exitX=0;exitY=0.5;exitDx=0;exitDy=0;" edge="1" parent="1">
          <mxGeometry width="50" height="50" relative="1" as="geometry">
            <mxPoint x="630" y="326" as="sourcePoint" />
            <mxPoint x="690" y="296" as="targetPoint" />
          </mxGeometry>
        </mxCell>
      </root>
    </mxGraphModel>
  </diagram>
</mxfile>
